<?xml version="1.0" standalone="no"?>
<!DOCTYPE svg PUBLIC "-//W3C//DTD SVG 20010904//EN"
 "http://www.w3.org/TR/2001/REC-SVG-20010904/DTD/svg10.dtd">
<svg version="1.0" xmlns="http://www.w3.org/2000/svg"
 width="301.000000pt" height="301.000000pt" viewBox="0 0 301.000000 301.000000"
 preserveAspectRatio="xMidYMid meet">
<metadata>
Created by potrace 1.14, written by Peter Selinger 2001-2017
</metadata>
<g transform="translate(0.000000,301.000000) scale(0.100000,-0.100000)"
fill="#000000" stroke="none">
<path d="M1349 3006 c-2 -2 -30 -7 -63 -11 -139 -15 -359 -88 -496 -162 -355
-194 -623 -528 -731 -911 -11 -41 -23 -87 -25 -101 -3 -14 -7 -33 -9 -41 -19
-66 -26 -329 -12 -455 9 -86 50 -254 82 -340 156 -413 488 -741 902 -888 73
-27 178 -56 223 -63 14 -2 52 -8 85 -13 101 -17 396 -6 502 18 528 117 941
480 1116 981 16 47 31 94 32 105 2 11 8 38 13 60 47 175 48 439 2 649 -83 378
-316 716 -643 929 -259 169 -508 243 -823 245 -83 1 -153 0 -155 -2z m136
-394 c0 -184 -2 -337 -5 -342 -3 -5 -24 -13 -46 -18 -40 -9 -42 -8 -53 22 -7
17 -47 123 -89 236 -72 191 -79 205 -102 205 -14 0 -26 -6 -28 -15 -1 -8 35
-118 81 -245 l84 -230 -40 -22 c-21 -13 -40 -23 -42 -23 -2 0 -60 69 -130 153
-145 173 -160 188 -180 180 -34 -12 -10 -53 124 -212 l139 -164 -32 -35 -33
-34 -204 117 c-112 65 -207 119 -211 122 -13 7 -38 -28 -30 -43 4 -8 41 -34
82 -57 41 -24 132 -76 203 -116 70 -41 127 -78 127 -83 0 -5 -6 -24 -14 -42
l-14 -33 -93 18 c-52 9 -107 20 -124 22 -16 3 -50 9 -75 13 -26 4 -61 20 -83
37 -44 34 -97 42 -138 21 -60 -31 -129 -137 -152 -236 -7 -26 -15 -48 -19 -48
-5 0 -8 4 -8 8 0 9 -39 28 -55 27 -38 -2 -96 -83 -120 -168 -36 -127 -10 -234
66 -266 l39 -16 0 -97 0 -98 -99 0 c-108 0 -104 -2 -116 62 -27 134 -28 454
-1 578 56 262 193 523 374 712 226 238 552 402 862 435 30 3 56 7 58 8 1 1 24
2 50 1 l47 -1 0 -333z m285 313 c285 -52 543 -189 754 -400 135 -136 226 -268
304 -447 37 -84 82 -231 96 -312 30 -171 26 -369 -9 -537 -8 -39 -15 -72 -15
-75 0 -2 -40 -4 -90 -4 l-90 0 -1 33 c-3 107 0 162 9 165 24 8 63 45 78 74 35
68 19 191 -39 290 -46 79 -94 101 -136 64 -18 -17 -20 -15 -42 55 -45 141
-134 237 -211 224 -18 -3 -52 -19 -76 -35 -35 -25 -66 -34 -191 -55 -82 -14
-155 -25 -162 -25 -8 0 -20 17 -26 38 -14 42 -14 42 83 97 269 151 314 180
314 201 0 12 -8 24 -17 26 -11 3 -102 -44 -222 -114 l-204 -119 -33 36 -32 36
26 32 c15 17 78 92 140 165 61 73 112 138 112 145 0 19 -20 36 -36 30 -11 -4
-66 -67 -273 -315 -13 -15 -17 -15 -57 4 l-42 21 13 41 c7 23 43 122 80 221
77 207 81 229 45 233 -27 3 -16 28 -144 -332 -25 -70 -47 -131 -50 -133 -2 -3
-22 -2 -44 2 l-39 6 0 344 0 345 71 -5 c39 -3 109 -12 156 -20z m-122 -753
c62 -24 132 -78 173 -135 46 -63 67 -131 79 -254 0 -2 8 -3 19 -3 28 0 40 21
35 61 l-5 37 48 6 c26 4 85 14 131 23 45 9 85 14 87 11 2 -2 -4 -27 -14 -54
-39 -102 -43 -208 -11 -289 12 -29 21 -123 13 -137 -2 -4 -47 15 -101 41 -85
43 -202 89 -239 95 -22 4 -28 16 -28 58 0 44 -20 66 -49 55 -11 -4 -16 -19
-16 -47 l0 -40 -37 5 c-78 13 -369 13 -435 1 l-67 -12 -3 45 c-2 35 -7 47 -22
49 -27 6 -40 -13 -42 -61 -3 -59 -2 -57 -22 -57 -25 0 -156 -52 -250 -99 l-80
-40 -4 52 c-2 29 2 70 9 91 28 83 20 208 -18 295 -11 24 -17 46 -15 49 3 2 66
-6 140 -19 l135 -23 3 -45 c3 -38 7 -47 25 -49 24 -4 29 8 38 83 12 109 101
237 200 288 99 51 221 58 323 19z m-976 -212 c47 -50 72 -98 92 -176 28 -109
8 -207 -50 -253 -54 -42 -59 -33 -59 92 1 128 -1 143 -23 152 -30 11 -36 -14
-37 -143 -1 -120 -2 -127 -20 -124 -65 12 -116 96 -116 188 0 138 86 298 165
303 5 1 26 -17 48 -39z m1756 21 c27 -14 77 -93 103 -160 27 -72 29 -182 4
-231 -20 -39 -32 -52 -62 -68 -41 -22 -45 -16 -43 71 3 150 1 174 -16 181 -36
14 -44 -11 -44 -145 l0 -128 -29 10 c-133 46 -142 292 -16 436 46 53 60 57
103 34z m-2069 -288 c30 -46 59 -132 56 -163 -1 -14 -3 -37 -4 -51 -2 -43 -36
-71 -83 -67 -70 5 -97 70 -73 174 12 51 59 144 73 144 4 0 18 -17 31 -37z
m2366 -40 c24 -48 29 -71 30 -131 0 -66 -3 -76 -24 -93 -30 -25 -85 -25 -110
0 -50 50 -29 211 36 283 21 23 32 14 68 -59z m-1046 -108 c86 -11 91 -14 91
-51 0 -31 -2 -33 -27 -28 -16 2 -49 8 -75 13 -62 11 -311 6 -368 -8 -66 -15
-70 -14 -70 19 0 23 6 33 25 40 61 23 301 32 424 15z m-513 -68 c-3 -12 -5
-25 -5 -29 -1 -3 -25 -14 -53 -24 -69 -22 -230 -97 -268 -124 l-30 -21 0 35
c0 31 5 38 58 70 88 53 277 130 294 120 4 -3 6 -15 4 -27z m785 -2 c78 -32
157 -72 227 -116 14 -9 22 -24 22 -41 0 -16 -2 -28 -4 -28 -2 0 -43 21 -90 46
-48 25 -128 61 -179 79 -66 24 -92 37 -91 49 1 9 2 23 3 31 2 21 13 19 112
-20z m-1426 -15 c22 -11 46 -20 55 -20 13 0 15 -20 15 -142 l0 -143 -113 -3
-112 -3 0 101 c0 85 2 100 16 100 25 0 83 64 90 99 4 17 7 31 8 31 1 0 19 -9
41 -20z m2020 -10 c9 -41 50 -87 83 -95 l27 -6 0 -97 0 -97 -112 -3 -111 -3 0
146 0 145 26 6 c15 4 36 13 47 20 28 20 33 18 40 -16z m-1802 -132 c-2 -84 -3
-156 -3 -160 0 -5 -19 -8 -43 -8 l-42 0 0 139 c0 77 4 143 8 147 7 7 57 28 77
33 3 0 4 -68 3 -151z m1590 131 l37 -12 0 -144 0 -144 -52 3 -53 3 1 93 c3
217 4 224 17 218 6 -2 29 -10 50 -17z m-693 -114 c46 -5 51 -6 110 -19 129
-28 343 -119 455 -195 l46 -31 315 0 c172 0 314 -2 314 -4 0 -15 -60 -157 -97
-231 -138 -274 -362 -496 -640 -634 -214 -106 -424 -152 -673 -146 -80 2 -155
5 -166 8 -12 3 -39 8 -60 11 -70 11 -197 49 -284 83 -301 121 -565 357 -721
647 -38 71 -109 238 -109 258 0 4 140 8 311 8 287 0 313 1 337 19 160 112 419
210 602 227 36 4 66 8 68 9 4 4 135 -3 192 -10z"/>
<path d="M493 903 c-16 -6 -17 -39 -2 -49 20 -12 798 -9 810 3 6 6 8 20 4 32
-6 21 -8 21 -403 20 -218 0 -403 -3 -409 -6z"/>
<path d="M1421 896 c-17 -20 -2 -46 28 -47 14 0 120 -1 235 -1 219 -1 237 3
215 44 -9 17 -28 18 -238 18 -182 0 -231 -3 -240 -14z"/>
<path d="M2030 895 c-17 -20 -5 -45 22 -46 101 -4 448 0 457 5 16 11 13 43 -5
50 -9 3 -116 6 -239 6 -185 0 -225 -3 -235 -15z"/>
<path d="M593 704 c-3 -9 -2 -24 4 -32 8 -13 30 -15 128 -14 66 1 123 6 128
11 5 5 7 17 5 27 -3 17 -16 19 -131 22 -111 2 -128 0 -134 -14z"/>
<path d="M987 713 c-12 -11 -7 -53 6 -54 20 0 410 -1 433 0 26 1 39 28 23 47
-9 11 -57 14 -234 14 -122 0 -225 -3 -228 -7z"/>
<path d="M1583 704 c-3 -9 -2 -23 3 -32 8 -12 67 -14 407 -15 261 0 402 4 409
11 5 5 8 18 6 28 -3 18 -23 19 -411 22 -371 2 -408 1 -414 -14z"/>
<path d="M1124 515 c-4 -8 -4 -22 0 -30 5 -13 53 -15 378 -13 l373 3 0 25 0
25 -373 3 c-325 2 -373 0 -378 -13z"/>
<path d="M1338 340 c-16 -4 -23 -13 -23 -30 l0 -25 176 -3 c141 -2 178 0 188
12 19 22 2 46 -33 47 -235 3 -288 3 -308 -1z"/>
</g>
</svg>
