<svg id="Layer_1" data-name="Layer 1" xmlns="http://www.w3.org/2000/svg" viewBox="0 0 240.78 110.75"><defs><style>.cls-1{fill:#0e1923;}</style></defs><path class="cls-1" d="M175.1,93.22a55.08,55.08,0,1,0-2.1,15.19,1.07,1.07,0,0,0,.36-.8,1.13,1.13,0,0,0-.05-.32A55.89,55.89,0,0,0,175.1,93.22Zm-55.23-25.5a14.33,14.33,0,0,1,13.95,10.93,33,33,0,0,1,.42,3.46c0,.14.1,1.18.93,1.18a1.13,1.13,0,0,0,1.18-1.18,16.53,16.53,0,0,0-.18-2.42l10.4-1.84a18.5,18.5,0,0,0-2.25,8.46,11,11,0,0,0,1.4,5.71,1.31,1.31,0,0,0-.11.75c0,.92.11,1.84.11,2.77v1s-1.76-1.09-2.54-1.52a45.07,45.07,0,0,0-5.86-2.71,41.74,41.74,0,0,0-5.09-1.61c-.18,0-.27-.12-.27-.33,0-.87,0-1.73,0-2.6a1.24,1.24,0,0,0-1.25-1.31,1.19,1.19,0,0,0-1.07,1.32c0,.67,0,1.35,0,2,0,.25-.08.3-.3.24-1-.23-2-.34-3-.49-1.31-.19-2.64-.28-4-.34a50.18,50.18,0,0,0-9.72.43c-1,.15-2,.31-3,.54,0-.09,0-.16,0-.22,0-.78,0-1.57,0-2.35a1.14,1.14,0,0,0-.82-1.1,1.17,1.17,0,0,0-1.48,1.25v2.7c0,.18,0,.27-.23.32-.49.12-1,.27-1.48.42a46.4,46.4,0,0,0-6.71,2.62c-1.69.81-4.94,2.57-4.94,2.47v-3.5a1.47,1.47,0,0,0-.22-.8A10.9,10.9,0,0,0,95,86.5a18.86,18.86,0,0,0-2.37-8.7l10.89,1.92a17.57,17.57,0,0,0-.17,2.39,1.11,1.11,0,0,0,1.12,1.12c.72,0,1-1,1-1.12A14.39,14.39,0,0,1,119.87,67.72Zm42.42,31.42v7.38H154V95.73A8.22,8.22,0,0,0,158,94C158.4,97.81,160.55,98.88,162.29,99.14ZM159.8,92.6a9.57,9.57,0,0,1,.33-2.44c.05-.16.09-.32.13-.48.72-2.35,2.06-4.31,2.71-4.7.91.64,3.24,4.47,3.24,7.75,0,3.82-1.71,4.31-3.21,4.31S159.8,96.58,159.8,92.6Zm-5.79.92v-9a1.09,1.09,0,0,0-2.18,0v9c-2.62-.39-5.2-2.44-5.2-7.26,0-5.36,3.44-11.09,5.91-11.09s6.08,6,6.08,11.28C158.62,91,156.41,93,154,93.52Zm-2.18,2.25v10.75h-4c0-1.31,0-2.78,0-4.17,0-2.67.14-5.35.14-8A7.58,7.58,0,0,0,151.83,95.77Zm-6.33,6c-.69-.42-1.35-.83-2-1.22a45.1,45.1,0,0,0-5.29-2.66,48.43,48.43,0,0,0-5.34-1.9c-.29-.09-.69-.07-.86-.29s0-.6-.05-.91,0-.93,0-1.39c0-.23,0-.33.31-.25a42.31,42.31,0,0,1,6.36,2.29q2.06.93,4,2.06c.9.52,1.76,1.1,2.63,1.66a.51.51,0,0,1,.25.47C145.49,100.28,145.5,101,145.5,101.72Zm-35.88-8.83c0-.29.11-.38.35-.42,1.11-.18,2.21-.42,3.32-.56a52.32,52.32,0,0,1,6.29-.44c1.9,0,3.55.08,5.2.24a37.28,37.28,0,0,1,4.34.67c.52.11.52.1.52.63s0,1.2,0,1.8c0,.24,0,.32-.32.26-1.25-.23-2.5-.46-3.77-.61a47.14,47.14,0,0,0-6.28-.36,48.81,48.81,0,0,0-5.54.41c-1.29.16-2.56.39-3.83.66-.23,0-.29,0-.29-.26C109.64,94.24,109.65,93.56,109.62,92.89Zm-2.3,2.71a.23.23,0,0,1-.2.27c-1.26.34-2.49.75-3.72,1.2a47.41,47.41,0,0,0-5.35,2.39,42.16,42.16,0,0,0-3.89,2.29l-.2.11c0-.79,0-1.72,0-2.45a.35.35,0,0,1,.2-.31A40.16,40.16,0,0,1,101.82,95a44.26,44.26,0,0,1,5.26-1.84c.18,0,.25,0,.24.18C107.31,94.12,107.32,94.86,107.32,95.6ZM88.39,93.52v-9a1.09,1.09,0,0,0-2.18,0v9c-2.62-.4-5.17-2.45-5.17-7.25C81,81,84.48,75.22,87,75.22S93,81.27,93,86.5C93,91,90.79,93,88.39,93.52Zm3.28,9.16c0,1.29,0,2.58,0,3.87a1.24,1.24,0,0,0-.27,0h-3V95.73a8,8,0,0,0,3.4-1.4C91.79,97.11,91.67,99.9,91.67,102.68ZM77.93,99.12c1.74-.33,3.75-1.5,4.12-5.13a7.68,7.68,0,0,0,4.16,1.77v10.76H77.93ZM76.46,97c-1.38,0-3.21-.46-3.21-4.44,0-3.47,2.27-7.08,3.17-7.62.91.64,3.24,4.47,3.24,7.75C79.66,96.55,78,97,76.46,97Zm-9.79-3.82A53.32,53.32,0,0,1,119.13,40V65.63a15.26,15.26,0,0,0-3.59.6l-6.33-17.07a1.12,1.12,0,0,0-1-.69,1.16,1.16,0,0,0-.38.06,1.06,1.06,0,0,0-.65,1.35L113.34,67a16.23,16.23,0,0,0-3.14,1.79L100,56.55a1,1,0,0,0-.8-.38,1.06,1.06,0,0,0-.81,1.74l10.22,12.18a16.76,16.76,0,0,0-2.32,2.72L91.1,64.06a1.08,1.08,0,0,0-.53-.14,1,1,0,0,0-.91.53A1.06,1.06,0,0,0,90,65.89l15.13,8.73a16.5,16.5,0,0,0-1.18,3l-13-2.3A5.76,5.76,0,0,0,86.89,73c-3.86,0-7.34,5.93-8,11.37a3.5,3.5,0,0,0-2.4-1.66c-2.55,0-5.25,5.87-5.25,9.85,0,5,2.57,6.25,4.54,6.54v7.38H68.22A52.41,52.41,0,0,1,66.67,93.22Zm53.06,53.19A53,53,0,0,1,68.84,108.7H91.39a1.22,1.22,0,0,0,.38-.07l.18,0c.3,0,12-9.39,27.78-9.39,13.23,0,24,6.93,27,8.88a1.09,1.09,0,0,0,.94.56h23A53,53,0,0,1,119.73,146.41Zm51.51-39.89h-6.77v-7.4c1.75-.36,4.06-1.76,4.06-6.39a14.61,14.61,0,0,0-1.87-6.43c-.7-1.33-2.13-3.55-3.62-3.55a3.6,3.6,0,0,0-2.54,1.67c-.76-5.44-4.3-11.38-8-11.38a5.86,5.86,0,0,0-4.24,2.37l-12.52,2.2a16.23,16.23,0,0,0-1.23-3.11l14.92-8.61a1.06,1.06,0,0,0,.38-1.44,1,1,0,0,0-.91-.53,1.1,1.1,0,0,0-.53.14l-15,8.64A17,17,0,0,0,131,70l10.1-12a1.05,1.05,0,0,0-.13-1.49,1,1,0,0,0-.67-.25,1.06,1.06,0,0,0-.81.38L129.37,68.62a16.1,16.1,0,0,0-3.2-1.77l6.17-17a1,1,0,0,0,0-.8,1,1,0,0,0-1-.61,1.06,1.06,0,0,0-1,.69l-6,17a15.16,15.16,0,0,0-3.24-.55V40a53.17,53.17,0,0,1,52,53.18A52.4,52.4,0,0,1,171.24,106.52Zm-19,15.91H123.65a1.09,1.09,0,1,0,0,2.18h28.56a1.09,1.09,0,1,0,0-2.18Zm-13.3-5.88a1.09,1.09,0,0,0,1.09,1.09h16.14a1.09,1.09,0,0,0,0-2.18H140A1.09,1.09,0,0,0,138.91,116.55Zm-44,5.88H87a1.09,1.09,0,1,0,0,2.18h7.85a1.09,1.09,0,1,0,0-2.18Zm22.67-4.79h15.91a1.09,1.09,0,0,0,0-2.18H117.55a1.09,1.09,0,0,0,0,2.18Zm15,11.77H106.65a1.09,1.09,0,0,0,0,2.18h25.94a1.09,1.09,0,0,0,0-2.18Zm-20-12.86a1.09,1.09,0,0,0-1.09-1.09H83.11a1.09,1.09,0,0,0,0,2.18h28.34A1.09,1.09,0,0,0,112.54,116.55Zm12.86,19.83H113.63a1.09,1.09,0,1,0,0,2.18H125.4a1.09,1.09,0,0,0,0-2.18ZM118,123.52a1.09,1.09,0,0,0-1.09-1.09H101.42a1.09,1.09,0,1,0,0,2.18H116.9A1.09,1.09,0,0,0,118,123.52Z" transform="translate(-64.36 -37.85)"/><path class="cls-1" d="M204.38,89.07a2,2,0,0,1-2,1.93,2,2,0,0,1-1.44-.65l-6-7-2.64,2.75v2.66A2.24,2.24,0,0,1,190.08,91a2.21,2.21,0,0,1-2.23-2.2v-15a2.23,2.23,0,1,1,4.46,0v6.39L200,72.29a2.19,2.19,0,0,1,1.6-.76,2,2,0,0,1,2,2,2.14,2.14,0,0,1-.47,1.25l-5.41,5.69,6.17,7.32A2,2,0,0,1,204.38,89.07Z" transform="translate(-64.36 -37.85)"/><path class="cls-1" d="M221.44,86.9a1.95,1.95,0,1,1,0,3.89h-8.87a2.39,2.39,0,0,1-2.47-2.48V74.22a2.38,2.38,0,0,1,2.47-2.47h8.6a1.94,1.94,0,1,1,0,3.88h-6.61v3.73h4.1a1.87,1.87,0,1,1,0,3.73h-4.1V86.9Z" transform="translate(-64.36 -37.85)"/><path class="cls-1" d="M244,88.77a2,2,0,0,1-2,2.1,2,2,0,0,1-1.63-.82l-4.52-5.76h-2v4.48a2.21,2.21,0,0,1-2.2,2.23,2.25,2.25,0,0,1-2.26-2.23V74.22a2.39,2.39,0,0,1,2.48-2.47h5c4.25,0,7,2.88,7,6.31a6,6,0,0,1-3.54,5.49l3.24,3.86A2.36,2.36,0,0,1,244,88.77Zm-10.23-8.29h2.75c1.55,0,2.91-.41,2.91-2.42s-1.36-2.51-2.91-2.51h-2.75Z" transform="translate(-64.36 -37.85)"/><path class="cls-1" d="M263.71,73.73a2,2,0,0,1-2,2h-3.37v13a2.23,2.23,0,1,1-4.46,0v-13h-3.35a2,2,0,1,1,0-3.94h11.18A2,2,0,0,1,263.71,73.73Z" transform="translate(-64.36 -37.85)"/><path class="cls-1" d="M280.76,86.9a1.95,1.95,0,1,1,0,3.89h-8.87a2.39,2.39,0,0,1-2.47-2.48V74.22a2.38,2.38,0,0,1,2.47-2.47h8.6a1.94,1.94,0,1,1,0,3.88h-6.61v3.73H278a1.87,1.87,0,1,1,0,3.73h-4.11V86.9Z" transform="translate(-64.36 -37.85)"/><path class="cls-1" d="M305.13,89.07a2,2,0,0,1-2,1.93,2,2,0,0,1-1.44-.65l-6-7-2.64,2.75v2.66A2.24,2.24,0,0,1,290.83,91a2.21,2.21,0,0,1-2.23-2.2v-15a2.23,2.23,0,1,1,4.46,0v6.39l7.67-7.86a2.19,2.19,0,0,1,1.6-.76,2,2,0,0,1,2,2,2.14,2.14,0,0,1-.47,1.25l-5.41,5.69,6.17,7.32A2,2,0,0,1,305.13,89.07Z" transform="translate(-64.36 -37.85)"/><path class="cls-1" d="M205.19,113.93a.91.91,0,0,1-.92.9,1,1,0,0,1-.9-.6l-2.1-4.84h-9.16l-2.1,4.84a1,1,0,0,1-.89.6.93.93,0,0,1-.93-.9,1.2,1.2,0,0,1,.11-.46l7.48-17.16a1,1,0,0,1,.92-.71,1,1,0,0,1,.93.71l7.48,17.16A1.39,1.39,0,0,1,205.19,113.93Zm-4.57-6.09-3.92-9.06-3.91,9.06Z" transform="translate(-64.36 -37.85)"/><path class="cls-1" d="M221.48,113a.84.84,0,1,1,0,1.68h-9.41a1,1,0,0,1-1-1V96.58a1,1,0,0,1,1-1,1,1,0,0,1,.95,1V113Z" transform="translate(-64.36 -37.85)"/><path class="cls-1" d="M238.65,96.52V107.6c0,5.44-2.83,7.31-6.18,7.31a6.37,6.37,0,0,1-4.35-1.47c-.44-.4-.63-.7-.63-1.06a.8.8,0,0,1,.82-.84,1.12,1.12,0,0,1,.76.3,4.93,4.93,0,0,0,3.43,1.33c2.37,0,4.24-1.3,4.24-5.6v-11a.94.94,0,0,1,.95-.92A1,1,0,0,1,238.65,96.52Z" transform="translate(-64.36 -37.85)"/><path class="cls-1" d="M261,113.93a.91.91,0,0,1-.92.9,1,1,0,0,1-.9-.6l-2.1-4.84h-9.16l-2.1,4.84a1,1,0,0,1-.89.6.93.93,0,0,1-.93-.9,1.2,1.2,0,0,1,.11-.46l7.48-17.16a1,1,0,0,1,.92-.71,1,1,0,0,1,.93.71l7.48,17.16A1.39,1.39,0,0,1,261,113.93Zm-4.57-6.09-3.92-9.06-3.91,9.06Z" transform="translate(-64.36 -37.85)"/></svg>